<?xml version="1.0" encoding="UTF-8" standalone="no"?>
<!-- Created with Inkscape (http://www.inkscape.org/) -->

<svg
   xmlns:dc="http://purl.org/dc/elements/1.1/"
   xmlns:cc="http://creativecommons.org/ns#"
   xmlns:rdf="http://www.w3.org/1999/02/22-rdf-syntax-ns#"
   xmlns:svg="http://www.w3.org/2000/svg"
   xmlns="http://www.w3.org/2000/svg"
   xmlns:sodipodi="http://sodipodi.sourceforge.net/DTD/sodipodi-0.dtd"
   xmlns:inkscape="http://www.inkscape.org/namespaces/inkscape"
   width="2725.4602mm"
   height="1548.6942mm"
   viewBox="0 0 9657.1421 5487.4991"
   id="svg2"
   version="1.1"
   inkscape:version="0.91 r13725"
   sodipodi:docname="background.svg">
  <defs
     id="defs4" />
  <sodipodi:namedview
     id="base"
     pagecolor="#ffffff"
     bordercolor="#666666"
     borderopacity="1.0"
     inkscape:pageopacity="0.0"
     inkscape:pageshadow="2"
     inkscape:zoom="0.028284271"
     inkscape:cx="3529.7972"
     inkscape:cy="3225.5069"
     inkscape:document-units="px"
     inkscape:current-layer="layer1"
     showgrid="false"
     inkscape:window-width="1536"
     inkscape:window-height="814"
     inkscape:window-x="-8"
     inkscape:window-y="-8"
     inkscape:window-maximized="1"
     fit-margin-top="0"
     fit-margin-left="0"
     fit-margin-right="0"
     fit-margin-bottom="0" />
  <metadata
     id="metadata7">
    <rdf:RDF>
      <cc:Work
         rdf:about="">
        <dc:format>image/svg+xml</dc:format>
        <dc:type
           rdf:resource="http://purl.org/dc/dcmitype/StillImage" />
        <dc:title></dc:title>
      </cc:Work>
    </rdf:RDF>
  </metadata>
  <g
     inkscape:label="Layer 1"
     inkscape:groupmode="layer"
     id="layer1"
     transform="translate(4694.0059,1930.5347)">
    <rect
       style="fill:#0000ff;fill-rule:evenodd;stroke:#000000;stroke-width:50px;stroke-linecap:butt;stroke-linejoin:miter;stroke-opacity:0"
       id="rect3344"
       width="9607.1426"
       height="5437.499"
       x="-4669.0059"
       y="-1905.5347"
       clip-path="none" />
    <path
       style="opacity:0.76700003;fill:none;fill-opacity:1;fill-rule:evenodd;stroke:#ffffff;stroke-width:56.75268936px;stroke-linecap:butt;stroke-linejoin:miter;stroke-opacity:1"
       d="m 4739.7669,-1522.7857 -298.999,327.0115 263.823,373.72797 -211.059,373.727 263.8235,373.728002 -211.0585,350.369498 246.235,397.0855 -228.6465,303.6535 263.823,373.72753 -316.588,607.3075 246.235,116.7895 -281.4115,513.876 228.647,140.1475 -211.059,513.8755"
       id="path3346"
       inkscape:connector-curvature="0" />
    <path
       style="opacity:0.76700003;fill:none;fill-opacity:1;fill-rule:evenodd;stroke:#ffffff;stroke-width:56.75268936px;stroke-linecap:butt;stroke-linejoin:miter;stroke-opacity:1"
       d="m 4175.0554,-1635.0002 -298.999,327.0115 263.823,373.72797 -211.059,373.727 263.8235,373.728 -211.0585,350.3695 246.235,397.0855 -228.6465,303.654 263.823,373.72703 -316.588,607.3075 246.235,116.7895 -281.4115,513.876 228.647,140.1475 -211.059,513.8755"
       id="path3346-3"
       inkscape:connector-curvature="0" />
    <path
       style="opacity:0.76700003;fill:none;fill-opacity:1;fill-rule:evenodd;stroke:#ffffff;stroke-width:56.75268936px;stroke-linecap:butt;stroke-linejoin:miter;stroke-opacity:1"
       d="m 3733.1139,-1559.2387 -298.999,327.0115 263.823,373.72797 -211.059,373.727 263.8235,373.728 -211.0585,350.3695 246.235,397.0855 -228.6465,303.6535 263.823,373.72753 -316.588,607.3075 246.235,116.7895 -281.4115,513.876 228.647,140.1475 -211.059,513.8755"
       id="path3346-0"
       inkscape:connector-curvature="0" />
    <path
       style="opacity:0.76700003;fill:none;fill-opacity:1;fill-rule:evenodd;stroke:#ffffff;stroke-width:56.75268936px;stroke-linecap:butt;stroke-linejoin:miter;stroke-opacity:1"
       d="m 3366.9334,-1672.8807 -298.999,327.0115 263.823,373.72797 -211.059,373.727 263.8235,373.728 -211.0585,350.3695 246.235,397.0855 -228.6465,303.654 263.823,373.72703 -316.588,607.3075 246.235,116.7895 -281.4115,513.876 228.647,140.1475 -211.059,513.8755"
       id="path3346-5"
       inkscape:connector-curvature="0" />
    <path
       style="opacity:0.76700003;fill:none;fill-opacity:1;fill-rule:evenodd;stroke:#ffffff;stroke-width:56.75268936px;stroke-linecap:butt;stroke-linejoin:miter;stroke-opacity:1"
       d="m 2912.3654,-1533.9847 -298.999,327.0115 263.823,373.72797 -211.059,373.727 263.8235,373.728002 -211.0585,350.369498 246.235,397.0855 -228.6465,303.6535 263.823,373.72753 -316.588,607.3075 246.235,116.7895 -281.4115,513.876 228.647,140.1475 -211.059,513.8755"
       id="path3346-6"
       inkscape:connector-curvature="0" />
    <path
       style="opacity:0.76700003;fill:none;fill-opacity:1;fill-rule:evenodd;stroke:#ffffff;stroke-width:56.75268936px;stroke-linecap:butt;stroke-linejoin:miter;stroke-opacity:1"
       d="m 2470.4234,-1597.1197 -298.999,327.0115 263.823,373.72797 -211.059,373.727 263.8235,373.728 -211.0585,350.3695 246.235,397.0855 -228.6465,303.654 263.823,373.72703 -316.588,607.3075 246.235,116.7895 -281.4115,513.876 228.647,140.1475 -211.059,513.8755"
       id="path3346-2"
       inkscape:connector-curvature="0" />
    <path
       style="opacity:0.76700003;fill:none;fill-opacity:1;fill-rule:evenodd;stroke:#ffffff;stroke-width:56.75268936px;stroke-linecap:butt;stroke-linejoin:miter;stroke-opacity:1"
       d="m 2015.8549,-1508.7312 -298.999,327.0115 263.823,373.72797 -211.059,373.727 263.8235,373.728002 -211.0585,350.369498 246.235,397.0855 -228.6465,303.6535 263.823,373.72753 -316.588,607.3075 246.235,116.7895 -281.4115,513.876 228.647,140.1475 -211.059,513.8755"
       id="path3346-05"
       inkscape:connector-curvature="0" />
    <path
       style="opacity:0.76700003;fill:none;fill-opacity:1;fill-rule:evenodd;stroke:#ffffff;stroke-width:56.75268936px;stroke-linecap:butt;stroke-linejoin:miter;stroke-opacity:1"
       d="m 1521.6554,-1566.9797 -298.999,327.0115 263.823,373.72797 -211.059,373.727 263.8235,373.728 -211.0585,350.3695 246.235,397.0855 -228.6465,303.6535 263.823,373.72753 -316.588,607.3075 246.235,116.7895 -281.4115,513.876 228.647,140.1475 -211.059,513.8755"
       id="path3346-1"
       inkscape:connector-curvature="0" />
    <path
       style="opacity:0.76700003;fill:none;fill-opacity:1;fill-rule:evenodd;stroke:#ffffff;stroke-width:56.75268936px;stroke-linecap:butt;stroke-linejoin:miter;stroke-opacity:1"
       d="m 956.94391,-1679.1942 -298.999,327.0115 263.823,373.72797 -211.059,373.727 263.8235,373.728 -211.0585,350.3695 246.23499,397.0855 -228.64649,303.654 263.82299,373.72703 -316.58799,607.3075 246.235,116.7895 -281.4115,513.876 228.647,140.1475 -211.059,513.8755"
       id="path3346-3-6"
       inkscape:connector-curvature="0" />
    <path
       style="opacity:0.76700003;fill:none;fill-opacity:1;fill-rule:evenodd;stroke:#ffffff;stroke-width:56.75268936px;stroke-linecap:butt;stroke-linejoin:miter;stroke-opacity:1"
       d="m 515.0024,-1603.4327 -298.999,327.0115 263.823,373.72797 -211.059,373.727 263.8235,373.728 -211.0585,350.3695 246.23501,397.0855 -228.64651,303.654 263.82301,373.72703 -316.58801,607.3075 246.235,116.7895 -281.4115,513.876 228.647,140.1475 -211.059,513.8755"
       id="path3346-0-2"
       inkscape:connector-curvature="0" />
    <path
       style="opacity:0.76700003;fill:none;fill-opacity:1;fill-rule:evenodd;stroke:#ffffff;stroke-width:56.75268936px;stroke-linecap:butt;stroke-linejoin:miter;stroke-opacity:1"
       d="m 148.8219,-1717.0747 -298.999,327.0115 263.823,373.728 -211.059,373.72697 263.8235,373.728 -211.0585,350.369502 246.235,397.085498 -228.6465,303.654 263.823,373.72703 -316.588,607.3075 246.235,116.7895 -281.4115,513.876 228.647,140.1475 -211.059,513.8755"
       id="path3346-5-8"
       inkscape:connector-curvature="0" />
    <path
       style="opacity:0.76700003;fill:none;fill-opacity:1;fill-rule:evenodd;stroke:#ffffff;stroke-width:56.75268936px;stroke-linecap:butt;stroke-linejoin:miter;stroke-opacity:1"
       d="m -305.7461,-1578.1787 -298.99899,327.0115 263.82299,373.72797 -211.05899,373.727 263.82349,373.728 -211.05849,350.3695 246.23499,397.0855 -228.64649,303.6535 263.82299,373.72753 -316.58799,607.3075 246.23499,116.7895 -281.41149,513.876 228.64699,140.1475 -211.05899,513.8755"
       id="path3346-6-1"
       inkscape:connector-curvature="0" />
    <path
       style="opacity:0.76700003;fill:none;fill-opacity:1;fill-rule:evenodd;stroke:#ffffff;stroke-width:56.75268936px;stroke-linecap:butt;stroke-linejoin:miter;stroke-opacity:1"
       d="m -747.68809,-1641.3137 -298.99901,327.0115 263.82301,373.72797 -211.059,373.727 263.8235,373.728 -211.0585,350.3695 246.235,397.0855 -228.6465,303.654 263.823,373.72703 -316.588,607.3075 246.235,116.7895 -281.41151,513.876 228.64701,140.1475 -211.059,513.8755"
       id="path3346-2-4"
       inkscape:connector-curvature="0" />
    <path
       style="opacity:0.76700003;fill:none;fill-opacity:1;fill-rule:evenodd;stroke:#ffffff;stroke-width:56.75268936px;stroke-linecap:butt;stroke-linejoin:miter;stroke-opacity:1"
       d="m -1202.2566,-1552.9252 -298.999,327.0115 263.823,373.72797 -211.059,373.727 263.8235,373.728 -211.0585,350.3695 246.235,397.0855 -228.6465,303.6535 263.823,373.72753 -316.588,607.3075 246.235,116.7895 -281.4115,513.876 228.647,140.1475 -211.059,513.8755"
       id="path3346-05-7"
       inkscape:connector-curvature="0" />
    <path
       style="opacity:0.76700003;fill:none;fill-opacity:1;fill-rule:evenodd;stroke:#ffffff;stroke-width:56.75268936px;stroke-linecap:butt;stroke-linejoin:miter;stroke-opacity:1"
       d="m -1534.0559,-1428.0842 -298.999,327.0115 263.823,373.72797 -211.059,373.727 263.8235,373.728002 -211.0585,350.369498 246.2348,397.0855 -228.6463,303.65353 263.8228,373.7275 -316.5878,607.3075 246.235,116.7895 -281.4115,513.876 228.647,140.1475 -211.059,513.8755"
       id="path3346-10"
       inkscape:connector-curvature="0" />
    <path
       style="opacity:0.76700003;fill:none;fill-opacity:1;fill-rule:evenodd;stroke:#ffffff;stroke-width:56.75268936px;stroke-linecap:butt;stroke-linejoin:miter;stroke-opacity:1"
       d="m -2098.7674,-1540.2987 -298.999,327.0115 263.823,373.72797 -211.059,373.727 263.8235,373.728002 -211.0585,350.369498 246.235,397.0855 -228.6465,303.6535 263.823,373.72753 -316.588,607.3075 246.235,116.7895 -281.4115,513.876 228.647,140.1475 -211.059,513.8755"
       id="path3346-3-2"
       inkscape:connector-curvature="0" />
    <path
       style="opacity:0.76700003;fill:none;fill-opacity:1;fill-rule:evenodd;stroke:#ffffff;stroke-width:56.75268936px;stroke-linecap:butt;stroke-linejoin:miter;stroke-opacity:1"
       d="m -2540.7089,-1464.5372 -298.999,327.0115 263.823,373.72797 -211.059,373.727 263.8235,373.728002 -211.0585,350.369498 246.235,397.0855 -228.6465,303.65353 263.823,373.7275 -316.588,607.3075 246.235,116.7895 -281.4115,513.876 228.647,140.1475 -211.059,513.8755"
       id="path3346-0-7"
       inkscape:connector-curvature="0" />
    <path
       style="opacity:0.76700003;fill:none;fill-opacity:1;fill-rule:evenodd;stroke:#ffffff;stroke-width:56.75268936px;stroke-linecap:butt;stroke-linejoin:miter;stroke-opacity:1"
       d="m -2906.8894,-1578.1792 -298.999,327.0115 263.823,373.72797 -211.059,373.727 263.8235,373.728 -211.0585,350.3695 246.235,397.0855 -228.6465,303.6535 263.823,373.72753 -316.588,607.3075 246.235,116.7895 -281.4115,513.876 228.647,140.1475 -211.059,513.8755"
       id="path3346-5-7"
       inkscape:connector-curvature="0" />
    <path
       style="opacity:0.76700003;fill:none;fill-opacity:1;fill-rule:evenodd;stroke:#ffffff;stroke-width:56.75268936px;stroke-linecap:butt;stroke-linejoin:miter;stroke-opacity:1"
       d="m -3361.4574,-1439.2832 -298.999,327.0115 263.823,373.72797 -211.059,373.727 263.8235,373.7280019 -211.0585,350.3694981 246.235,397.0855 -228.6465,303.65353 263.823,373.7275 -316.588,607.3075 246.235,116.7895 -281.4115,513.876 228.647,140.1475 -211.059,513.8755"
       id="path3346-6-18"
       inkscape:connector-curvature="0" />
    <path
       style="opacity:0.76700003;fill:none;fill-opacity:1;fill-rule:evenodd;stroke:#ffffff;stroke-width:56.75268936px;stroke-linecap:butt;stroke-linejoin:miter;stroke-opacity:1"
       d="m -3803.3995,-1502.4182 -298.999,327.0115 263.823,373.72797 -211.059,373.727 263.8236,373.728002 -211.0586,350.369498 246.2351,397.0855 -228.6466,303.6535 263.8231,373.72753 -316.5881,607.3075 246.2351,116.7895 -281.4116,513.876 228.647,140.1475 -211.059,513.8755"
       id="path3346-2-7"
       inkscape:connector-curvature="0" />
    <path
       style="opacity:0.76700003;fill:none;fill-opacity:1;fill-rule:evenodd;stroke:#ffffff;stroke-width:56.75268936px;stroke-linecap:butt;stroke-linejoin:miter;stroke-opacity:1"
       d="m -4257.968,-1414.0297 -298.999,327.0115 263.823,373.72797 -211.059,373.727 263.8235,373.728002 -211.0585,350.369498 246.235,397.0855 -228.6465,303.65353 263.823,373.7275 -316.588,607.3075 246.235,116.7895 -281.4115,513.876 228.647,140.1475 -211.059,513.8755"
       id="path3346-05-3"
       inkscape:connector-curvature="0" />
  </g>
</svg>
